# xmcd
#
# Track frame offsets: 
#        150
#        14635
#        29355
#        47587
#        62472
#        78135
#        122932
#        137622
#        146995
#        173900
#        191050
#        220992
#        237462
#        254650
#        276180
#        290017
#        299837
#
# Disc length: 4202 seconds
#
# Revision: 42
# Processed by: cddbd v1.5.2PL0 Copyright (c) Steve Scherf et al.
# Submitted via: ExactAudioCopy v1.0b3
#
DISCID=19106811
DTITLE=THE BLUE HEARTS - SUPER BEST MECR-25060
DYEAR=1995
DGENRE=J-song
TTITLE0=リンダ・リンダ
TTITLE1=人にやさしく
TTITLE2=シャララ
TTITLE3=ロクデナシ 
TTITLE4=ラヴレター
TTITLE5=平成のブルース
TTITLE6=キスしてほしい(トゥー・トゥー・トゥー) 
TTITLE7=ハンマー
TTITLE8=チェインギャング 
TTITLE9=トレイン-トレイン 
TTITLE10=ラインを越えて 
TTITLE11=僕はここに立っているよ
TTITLE12=英雄にあこがれて 
TTITLE13=青空 
TTITLE14=終わらない歌
TTITLE15=ブルーハーツより愛を込めて 
TTITLE16=1985 
EXTD=YEAR: 1995
EXTT0=
EXTT1=
EXTT2=
EXTT3=
EXTT4=
EXTT5=
EXTT6=
EXTT7=
EXTT8=
EXTT9=
EXTT10=
EXTT11=
EXTT12=
EXTT13=
EXTT14=
EXTT15=
EXTT16=
PLAYORDER=
